<svg width="1200" height="630" viewBox="0 0 1200 630" fill="none" xmlns="http://www.w3.org/2000/svg">
    
  <defs>
    <filter id="glow1" x="-20%" y="-20%" width="140%" height="140%"><feGaussianBlur stdDeviation="90"/></filter>
    <filter id="glow2" x="-20%" y="-20%" width="140%" height="140%"><feGaussianBlur stdDeviation="80"/></filter>
    <linearGradient id="accGrad" x1="0%" y1="0%" x2="100%" y2="100%">
      <stop offset="0%" stop-color="#10b981"/>
      <stop offset="100%" stop-color="#3b82f6"/>
    </linearGradient>
    <linearGradient id="cardGrad" x1="0%" y1="0%" x2="0%" y2="100%">
      <stop offset="0%" stop-color="#1e293b" stop-opacity="0.85"/>
      <stop offset="100%" stop-color="#0f172a" stop-opacity="0.95"/>
    </linearGradient>
  </defs>
  <rect width="1200" height="630" rx="24" fill="#070e17"/>
  <!-- Ambient Glow Orbs -->
  <circle cx="180" cy="160" r="240" fill="#10b981" opacity="0.18" filter="url(#glow1)"/>
  <circle cx="1040" cy="460" r="260" fill="#3b82f6" opacity="0.16" filter="url(#glow2)"/>
  <!-- Subtle Background Grid -->
  <g opacity="0.05" stroke="#ffffff" stroke-width="1">
    <line x1="0" y1="90" x2="1200" y2="90"/>
    <line x1="0" y1="180" x2="1200" y2="180"/>
    <line x1="0" y1="270" x2="1200" y2="270"/>
    <line x1="0" y1="360" x2="1200" y2="360"/>
    <line x1="0" y1="450" x2="1200" y2="450"/>
    <line x1="0" y1="540" x2="1200" y2="540"/>
    <line x1="150" y1="0" x2="150" y2="630"/>
    <line x1="300" y1="0" x2="300" y2="630"/>
    <line x1="450" y1="0" x2="450" y2="630"/>
    <line x1="600" y1="0" x2="600" y2="630"/>
    <line x1="750" y1="0" x2="750" y2="630"/>
    <line x1="900" y1="0" x2="900" y2="630"/>
    <line x1="1050" y1="0" x2="1050" y2="630"/>
  </g>
  
    <!-- Header -->
    <rect x="80" y="55" width="280" height="34" rx="17" fill="#064e3b" stroke="#10b981" stroke-width="1.2"/>
    <text x="96" y="77" fill="#6ee7b7" font-family="system-ui, sans-serif" font-size="12" font-weight="700" letter-spacing="1">OPERATIONAL CONTROL</text>
    <text x="80" y="135" fill="#ffffff" font-family="system-ui, sans-serif" font-size="38" font-weight="800" letter-spacing="-1">Custom Admin Dashboard Development</text>
    <text x="80" y="170" fill="#94a3b8" font-family="system-ui, sans-serif" font-size="18">Executive KPI Visualizations, Optimistic CRUD &amp; Immutable Audit Logs</text>

    <!-- Sleek Dashboard Interface -->
    <g transform="translate(80, 215)">
      <rect width="1040" height="310" rx="18" fill="#0f172a" stroke="#334155" stroke-width="1.5"/>
      <!-- Top Stats Row -->
      <g transform="translate(25, 25)">
        <rect width="235" height="85" rx="12" fill="#1e293b" stroke="#334155"/>
        <text x="20" y="32" fill="#94a3b8" font-family="system-ui, sans-serif" font-size="11">TOTAL GROSS VOLUME</text>
        <text x="20" y="66" fill="#ffffff" font-family="system-ui, sans-serif" font-size="28" font-weight="900">$248,500</text>
        <text x="165" y="64" fill="#34d399" font-family="system-ui, sans-serif" font-size="12" font-weight="700">+38.4%</text>

        <rect x="250" y="0" width="235" height="85" rx="12" fill="#1e293b" stroke="#334155"/>
        <text x="270" y="32" fill="#94a3b8" font-family="system-ui, sans-serif" font-size="11">ACTIVE CONTRACTS</text>
        <text x="270" y="66" fill="#ffffff" font-family="system-ui, sans-serif" font-size="28" font-weight="900">1,429</text>
        <text x="415" y="64" fill="#38bdf8" font-family="system-ui, sans-serif" font-size="12" font-weight="700">+12%</text>

        <rect x="500" y="0" width="235" height="85" rx="12" fill="#1e293b" stroke="#334155"/>
        <text x="520" y="32" fill="#94a3b8" font-family="system-ui, sans-serif" font-size="11">SYSTEM SLA UPTIME</text>
        <text x="520" y="66" fill="#ffffff" font-family="system-ui, sans-serif" font-size="28" font-weight="900">99.98%</text>
        <text x="665" y="64" fill="#34d399" font-family="system-ui, sans-serif" font-size="12" font-weight="700">Healthy</text>

        <rect x="750" y="0" width="240" height="85" rx="12" fill="#1e293b" stroke="#334155"/>
        <text x="770" y="32" fill="#94a3b8" font-family="system-ui, sans-serif" font-size="11">AVG TASK LATENCY</text>
        <text x="770" y="66" fill="#ffffff" font-family="system-ui, sans-serif" font-size="28" font-weight="900">18ms</text>
        <text x="915" y="64" fill="#38bdf8" font-family="system-ui, sans-serif" font-size="12" font-weight="700">Edge</text>
      </g>

      <!-- Bottom Interactive Area Chart &amp; Audit Table -->
      <g transform="translate(25, 130)">
        <rect width="990" height="155" rx="14" fill="#1e293b"/>
        <text x="25" y="32" fill="#ffffff" font-family="system-ui, sans-serif" font-size="14" font-weight="700">Revenue Growth &amp; Transaction Velocity (Live Stream)</text>
        <!-- Mountain Area Chart -->
        <path d="M 25 125 L 140 105 L 260 115 L 380 75 L 500 85 L 620 45 L 740 55 L 860 25 L 965 30 L 965 140 L 25 140 Z" fill="#10b981" opacity="0.18"/>
        <path d="M 25 125 L 140 105 L 260 115 L 380 75 L 500 85 L 620 45 L 740 55 L 860 25 L 965 30" stroke="#10b981" stroke-width="2.5" fill="none"/>
        <circle cx="860" cy="25" r="5" fill="#34d399"/>
        <text x="872" y="28" fill="#34d399" font-family="system-ui, sans-serif" font-size="12" font-weight="700">Peak Month</text>
      </g>
    </g>
    
  <!-- Footer Branding -->
  <line x1="80" y1="560" x2="1120" y2="560" stroke="#1e293b" stroke-width="1"/>
  <text x="80" y="590" fill="#64748b" font-family="system-ui, -apple-system, sans-serif" font-size="12" font-weight="600" letter-spacing="1">RANKVRA ENGINEERING SERIES</text>
  <text x="1120" y="590" fill="#64748b" font-family="system-ui, -apple-system, sans-serif" font-size="12" font-weight="600" text-anchor="end">WWW.RANKVRA.COM</text>
  
  </svg>