<svg width="1200" height="630" viewBox="0 0 1200 630" fill="none" xmlns="http://www.w3.org/2000/svg">
  
  <defs>
    <filter id="glow-cportal" x="-30%" y="-30%" width="160%" height="160%">
      <feGaussianBlur stdDeviation="60" result="blur"/>
      <feComposite in="SourceGraphic" in2="blur" operator="over"/>
    </filter>
    <filter id="soft-shadow-cportal" x="-10%" y="-10%" width="130%" height="130%">
      <feDropShadow dx="0" dy="12" stdDeviation="16" flood-color="#000000" flood-opacity="0.45"/>
    </filter>
    <linearGradient id="bg-cportal" x1="0%" y1="0%" x2="100%" y2="100%">
      <stop offset="0%" stop-color="#0f172a"/>
      <stop offset="50%" stop-color="#1e3a8a"/>
      <stop offset="100%" stop-color="#030712"/>
    </linearGradient>
    <linearGradient id="acc-cportal" x1="0%" y1="0%" x2="100%" y2="0%">
      <stop offset="0%" stop-color="#38bdf8"/>
      <stop offset="50%" stop-color="#818cf8"/>
      <stop offset="100%" stop-color="#c084fc"/>
    </linearGradient>
    <linearGradient id="glass-cportal" x1="0%" y1="0%" x2="0%" y2="100%">
      <stop offset="0%" stop-color="#ffffff" stop-opacity="0.12"/>
      <stop offset="100%" stop-color="#ffffff" stop-opacity="0.03"/>
    </linearGradient>
  </defs>

  
  <rect width="1200" height="630" rx="28" fill="url(#bg-cportal)"/>
  <!-- Ambient Glow Orbs -->
  <circle cx="200" cy="180" r="280" fill="#38bdf8" opacity="0.28" filter="url(#glow-cportal)"/>
  <circle cx="1020" cy="450" r="300" fill="#34d399" opacity="0.25" filter="url(#glow-cportal)"/>
  <!-- Modern Tech Grid Pattern -->
  <g opacity="0.04" stroke="#ffffff" stroke-width="1">
    <line x1="0" y1="90" x2="1200" y2="90"/><line x1="0" y1="180" x2="1200" y2="180"/><line x1="0" y1="270" x2="1200" y2="270"/>
    <line x1="0" y1="360" x2="1200" y2="360"/><line x1="0" y1="450" x2="1200" y2="450"/><line x1="0" y1="540" x2="1200" y2="540"/>
    <line x1="120" y1="0" x2="120" y2="630"/><line x1="240" y1="0" x2="240" y2="630"/><line x1="360" y1="0" x2="360" y2="630"/>
    <line x1="480" y1="0" x2="480" y2="630"/><line x1="600" y1="0" x2="600" y2="630"/><line x1="720" y1="0" x2="720" y2="630"/>
    <line x1="840" y1="0" x2="840" y2="630"/><line x1="960" y1="0" x2="960" y2="630"/><line x1="1080" y1="0" x2="1080" y2="630"/>
  </g>


  <!-- Header -->
  <rect x="70" y="45" width="280" height="34" rx="17" fill="#1e3a8a" stroke="#38bdf8" stroke-width="1.5"/>
  <text x="88" y="67" fill="#93c5fd" font-family="system-ui, sans-serif" font-size="12" font-weight="800" letter-spacing="1.2">SECURE B2B WORKFLOWS</text>
  <text x="70" y="125" fill="#ffffff" font-family="system-ui, sans-serif" font-size="36" font-weight="900" letter-spacing="-0.8">Customer Portal Development &amp; Architecture</text>
  <text x="70" y="160" fill="#94a3b8" font-family="system-ui, sans-serif" font-size="16">Role-Based Access Control, Encrypted Document Vaults &amp; Real-Time Policy Pipelines</text>

  <!-- Browser Interface Container (Modeled on Sterling Wholesale Insurance Portal) -->
  <g transform="translate(70, 195)">
    <rect width="1060" height="380" rx="22" fill="#090d16" stroke="#1e293b" stroke-width="2" filter="url(#soft-shadow-cportal)"/>
    
    <!-- Window Bar -->
    <circle cx="28" cy="22" r="5.5" fill="#ef4444"/>
    <circle cx="46" cy="22" r="5.5" fill="#eab308"/>
    <circle cx="64" cy="22" r="5.5" fill="#22c55e"/>
    <rect x="90" y="12" width="410" height="20" rx="7" fill="#1e293b"/>
    <text x="105" y="26" fill="#64748b" font-family="monospace" font-size="11">https://app.sterlingwholesaleinsurance.com/broker/portal</text>

    <!-- Left Sidebar -->
    <rect x="18" y="46" width="210" height="318" rx="14" fill="#0f172a" stroke="#1e293b"/>
    <text x="35" y="80" fill="#38bdf8" font-family="system-ui, sans-serif" font-size="14" font-weight="900">Sterling Wholesale</text>
    <text x="35" y="98" fill="#64748b" font-family="system-ui, sans-serif" font-size="11">Broker Portal v3.4</text>
    
    <rect x="26" y="115" width="194" height="34" rx="8" fill="#1e3a8a"/>
    <text x="40" y="137" fill="#93c5fd" font-family="system-ui, sans-serif" font-size="12" font-weight="800">📑 Submissions &amp; Quotes</text>
    <text x="40" y="175" fill="#94a3b8" font-family="system-ui, sans-serif" font-size="12">📂 Encrypted Vault (AES-256)</text>
    <text x="40" y="212" fill="#94a3b8" font-family="system-ui, sans-serif" font-size="12">🛡️ Active Bound Policies</text>
    <text x="40" y="249" fill="#94a3b8" font-family="system-ui, sans-serif" font-size="12">💳 Statements &amp; Invoices</text>
    <text x="40" y="286" fill="#94a3b8" font-family="system-ui, sans-serif" font-size="12">💬 Direct Underwriter Chat</text>
    <text x="40" y="323" fill="#94a3b8" font-family="system-ui, sans-serif" font-size="12">⚙️ Broker RBAC Settings</text>

    <!-- Main Content Area -->
    <g transform="translate(245, 46)">
      <!-- Top 3 Stat Widgets -->
      <rect x="0" y="0" width="250" height="75" rx="12" fill="#0f172a" stroke="#1e293b"/>
      <text x="16" y="28" fill="#94a3b8" font-family="system-ui, sans-serif" font-size="11" font-weight="700">ACTIVE SUBMISSIONS</text>
      <text x="16" y="58" fill="#ffffff" font-family="system-ui, sans-serif" font-size="24" font-weight="900">28 Policies</text>
      <text x="180" y="54" fill="#34d399" font-family="system-ui, sans-serif" font-size="11" font-weight="800">↑ 14% MoM</text>

      <rect x="270" y="0" width="250" height="75" rx="12" fill="#0f172a" stroke="#0284c7"/>
      <text x="286" y="28" fill="#94a3b8" font-family="system-ui, sans-serif" font-size="11" font-weight="700">BOUND PREMIUM (YTD)</text>
      <text x="286" y="58" fill="#38bdf8" font-family="system-ui, sans-serif" font-size="24" font-weight="900">$1,480,000</text>

      <rect x="540" y="0" width="255" height="75" rx="12" fill="#0f172a" stroke="#10b981"/>
      <text x="556" y="28" fill="#94a3b8" font-family="system-ui, sans-serif" font-size="11" font-weight="700">UNDERWRITER SLA SPEED</text>
      <text x="556" y="58" fill="#34d399" font-family="system-ui, sans-serif" font-size="24" font-weight="900">2.4 Hrs Avg</text>

      <!-- Data Table -->
      <g transform="translate(0, 95)">
        <rect width="795" height="223" rx="12" fill="#0f172a" stroke="#1e293b"/>
        
        <!-- Table Header -->
        <rect x="12" y="10" width="771" height="32" rx="8" fill="#1e293b"/>
        <text x="25" y="30" fill="#94a3b8" font-family="system-ui, sans-serif" font-size="11" font-weight="800">SUBMISSION ID</text>
        <text x="175" y="30" fill="#94a3b8" font-family="system-ui, sans-serif" font-size="11" font-weight="800">INSURED ENTITY</text>
        <text x="375" y="30" fill="#94a3b8" font-family="system-ui, sans-serif" font-size="11" font-weight="800">COVERAGE LINE</text>
        <text x="535" y="30" fill="#94a3b8" font-family="system-ui, sans-serif" font-size="11" font-weight="800">STATUS</text>
        <text x="690" y="30" fill="#94a3b8" font-family="system-ui, sans-serif" font-size="11" font-weight="800">ACTION</text>

        <!-- Row 1 -->
        <text x="25" y="75" fill="#38bdf8" font-family="monospace" font-size="13">#SWI-84920</text>
        <text x="175" y="75" fill="#ffffff" font-family="system-ui, sans-serif" font-size="13" font-weight="700">Apex Global Logistics</text>
        <text x="375" y="75" fill="#cbd5e1" font-family="system-ui, sans-serif" font-size="12">Commercial Auto Fleet</text>
        <rect x="535" y="58" width="115" height="24" rx="6" fill="#065f46" stroke="#34d399"/>
        <text x="550" y="74" fill="#34d399" font-family="system-ui, sans-serif" font-size="11" font-weight="800">BOUND / ACTIVE</text>
        <text x="690" y="75" fill="#38bdf8" font-family="system-ui, sans-serif" font-size="12" font-weight="700">Download ▾</text>

        <line x1="15" y1="98" x2="780" y2="98" stroke="#1e293b"/>

        <!-- Row 2 -->
        <text x="25" y="132" fill="#38bdf8" font-family="monospace" font-size="13">#SWI-84921</text>
        <text x="175" y="132" fill="#ffffff" font-family="system-ui, sans-serif" font-size="13" font-weight="700">Pacific BioTech Labs</text>
        <text x="375" y="132" fill="#cbd5e1" font-family="system-ui, sans-serif" font-size="12">Excess Liability ($10M)</text>
        <rect x="535" y="115" width="125" height="24" rx="6" fill="#78350f" stroke="#f59e0b"/>
        <text x="548" y="131" fill="#facc15" font-family="system-ui, sans-serif" font-size="11" font-weight="800">IN UNDERWRITING</text>
        <text x="690" y="132" fill="#38bdf8" font-family="system-ui, sans-serif" font-size="12" font-weight="700">Upload SOV ▾</text>

        <line x1="15" y1="155" x2="780" y2="155" stroke="#1e293b"/>

        <!-- Row 3 -->
        <text x="25" y="188" fill="#38bdf8" font-family="monospace" font-size="13">#SWI-84922</text>
        <text x="175" y="188" fill="#ffffff" font-family="system-ui, sans-serif" font-size="13" font-weight="700">Crestview Manufacturing</text>
        <text x="375" y="188" fill="#cbd5e1" font-family="system-ui, sans-serif" font-size="12">Commercial Property</text>
        <rect x="535" y="171" width="105" height="24" rx="6" fill="#1e1b4b" stroke="#818cf8"/>
        <text x="548" y="187" fill="#c7d2fe" font-family="system-ui, sans-serif" font-size="11" font-weight="800">QUOTE READY</text>
        <text x="690" y="188" fill="#34d399" font-family="system-ui, sans-serif" font-size="12" font-weight="700">Bind Online ▾</text>
      </g>
    </g>
  </g>
</svg>