<svg width="1200" height="630" viewBox="0 0 1200 630" fill="none" xmlns="http://www.w3.org/2000/svg">
    
  <defs>
    <filter id="glow1" x="-20%" y="-20%" width="140%" height="140%"><feGaussianBlur stdDeviation="90"/></filter>
    <filter id="glow2" x="-20%" y="-20%" width="140%" height="140%"><feGaussianBlur stdDeviation="80"/></filter>
    <linearGradient id="accGrad" x1="0%" y1="0%" x2="100%" y2="100%">
      <stop offset="0%" stop-color="#ef4444"/>
      <stop offset="100%" stop-color="#f59e0b"/>
    </linearGradient>
    <linearGradient id="cardGrad" x1="0%" y1="0%" x2="0%" y2="100%">
      <stop offset="0%" stop-color="#1e293b" stop-opacity="0.85"/>
      <stop offset="100%" stop-color="#0f172a" stop-opacity="0.95"/>
    </linearGradient>
  </defs>
  <rect width="1200" height="630" rx="24" fill="#0e0709"/>
  <!-- Ambient Glow Orbs -->
  <circle cx="180" cy="160" r="240" fill="#ef4444" opacity="0.18" filter="url(#glow1)"/>
  <circle cx="1040" cy="460" r="260" fill="#f59e0b" opacity="0.16" filter="url(#glow2)"/>
  <!-- Subtle Background Grid -->
  <g opacity="0.05" stroke="#ffffff" stroke-width="1">
    <line x1="0" y1="90" x2="1200" y2="90"/>
    <line x1="0" y1="180" x2="1200" y2="180"/>
    <line x1="0" y1="270" x2="1200" y2="270"/>
    <line x1="0" y1="360" x2="1200" y2="360"/>
    <line x1="0" y1="450" x2="1200" y2="450"/>
    <line x1="0" y1="540" x2="1200" y2="540"/>
    <line x1="150" y1="0" x2="150" y2="630"/>
    <line x1="300" y1="0" x2="300" y2="630"/>
    <line x1="450" y1="0" x2="450" y2="630"/>
    <line x1="600" y1="0" x2="600" y2="630"/>
    <line x1="750" y1="0" x2="750" y2="630"/>
    <line x1="900" y1="0" x2="900" y2="630"/>
    <line x1="1050" y1="0" x2="1050" y2="630"/>
  </g>
  
    <!-- Header -->
    <rect x="80" y="55" width="280" height="34" rx="17" fill="#450a0a" stroke="#ef4444" stroke-width="1.2"/>
    <text x="96" y="77" fill="#fca5a5" font-family="system-ui, sans-serif" font-size="12" font-weight="700" letter-spacing="1">DEFENSE IN DEPTH</text>
    <text x="80" y="135" fill="#ffffff" font-family="system-ui, sans-serif" font-size="38" font-weight="800" letter-spacing="-1">Secure Web Application Development</text>
    <text x="80" y="170" fill="#94a3b8" font-family="system-ui, sans-serif" font-size="18">OWASP Top 10 Hardening, Tokenized Auth &amp; Database Encryption</text>

    <!-- Concentric Shield Security Layout -->
    <g transform="translate(80, 215)">
      <!-- Left: Massive Shield Graphic -->
      <g transform="translate(0, 0)">
        <rect width="450" height="310" rx="18" fill="#0f172a" stroke="#ef4444" stroke-width="2"/>
        <!-- Shield Path -->
        <path d="M 225 45 L 340 90 L 340 185 C 340 240 225 275 225 275 C 225 275 110 240 110 185 L 110 90 Z" fill="#450a0a" stroke="#ef4444" stroke-width="3"/>
        <circle cx="225" cy="155" r="28" fill="#ef4444" opacity="0.3"/>
        <text x="225" y="165" fill="#ffffff" font-family="system-ui, sans-serif" font-size="28" text-anchor="middle">🔒</text>
        <text x="225" y="225" fill="#fca5a5" font-family="system-ui, sans-serif" font-size="14" font-weight="800" text-anchor="middle">OWASP VERIFIED</text>
      </g>

      <!-- Right: Security Layers -->
      <g transform="translate(480, 0)">
        <!-- Layer 1 -->
        <rect width="560" height="70" rx="12" fill="#0f172a" stroke="#334155" stroke-width="1.5"/>
        <rect x="20" y="20" width="32" height="32" rx="8" fill="#450a0a"/>
        <text x="36" y="42" fill="#f87171" font-family="system-ui, sans-serif" font-size="16" text-anchor="middle">🛡️</text>
        <text x="70" y="36" fill="#ffffff" font-family="system-ui, sans-serif" font-size="15" font-weight="700">Edge WAF &amp; Rate Limiting</text>
        <text x="70" y="55" fill="#94a3b8" font-family="system-ui, sans-serif" font-size="12">Cloudflare DDoS Shield &amp; Redis Token Bucket Throttling</text>

        <!-- Layer 2 -->
        <g transform="translate(0, 80)">
          <rect width="560" height="70" rx="12" fill="#0f172a" stroke="#334155" stroke-width="1.5"/>
          <rect x="20" y="20" width="32" height="32" rx="8" fill="#431407"/>
          <text x="36" y="42" fill="#fb923c" font-family="system-ui, sans-serif" font-size="16" text-anchor="middle">🔑</text>
          <text x="70" y="36" fill="#ffffff" font-family="system-ui, sans-serif" font-size="15" font-weight="700">Cryptographic Auth &amp; MFA</text>
          <text x="70" y="55" fill="#94a3b8" font-family="system-ui, sans-serif" font-size="12">HttpOnly Secure JWT Cookies • WebAuthn Hardware Keys</text>
        </g>

        <!-- Layer 3 -->
        <g transform="translate(0, 160)">
          <rect width="560" height="70" rx="12" fill="#0f172a" stroke="#334155" stroke-width="1.5"/>
          <rect x="20" y="20" width="32" height="32" rx="8" fill="#1e1b4b"/>
          <text x="36" y="42" fill="#a78bfa" font-family="system-ui, sans-serif" font-size="16" text-anchor="middle">⚡</text>
          <text x="70" y="36" fill="#ffffff" font-family="system-ui, sans-serif" font-size="15" font-weight="700">Parameterized SQL &amp; Sanitization</text>
          <text x="70" y="55" fill="#94a3b8" font-family="system-ui, sans-serif" font-size="12">Zero Raw String Interpolation • Automated XSS &amp; CSRF Defense</text>
        </g>

        <!-- Layer 4 -->
        <g transform="translate(0, 240)">
          <rect width="560" height="70" rx="12" fill="#0f172a" stroke="#10b981" stroke-width="1.5"/>
          <rect x="20" y="20" width="32" height="32" rx="8" fill="#064e3b"/>
          <text x="36" y="42" fill="#34d399" font-family="system-ui, sans-serif" font-size="16" text-anchor="middle">🗄️</text>
          <text x="70" y="36" fill="#ffffff" font-family="system-ui, sans-serif" font-size="15" font-weight="700">AES-256 Database Encryption at Rest</text>
          <text x="70" y="55" fill="#a7f3d0" font-family="system-ui, sans-serif" font-size="12">Automated hourly snapshot backups &amp; point-in-time recovery</text>
        </g>
      </g>
    </g>
    
  <!-- Footer Branding -->
  <line x1="80" y1="560" x2="1120" y2="560" stroke="#1e293b" stroke-width="1"/>
  <text x="80" y="590" fill="#64748b" font-family="system-ui, -apple-system, sans-serif" font-size="12" font-weight="600" letter-spacing="1">RANKVRA ENGINEERING SERIES</text>
  <text x="1120" y="590" fill="#64748b" font-family="system-ui, -apple-system, sans-serif" font-size="12" font-weight="600" text-anchor="end">WWW.RANKVRA.COM</text>
  
  </svg>